<?xml version="1.0" encoding="UTF-8" standalone="no"?>
<!-- Created with Inkscape (http://www.inkscape.org/) -->

<svg
   xmlns:dc="http://purl.org/dc/elements/1.1/"
   xmlns:cc="http://creativecommons.org/ns#"
   xmlns:rdf="http://www.w3.org/1999/02/22-rdf-syntax-ns#"
   xmlns:svg="http://www.w3.org/2000/svg"
   xmlns="http://www.w3.org/2000/svg"
   xmlns:xlink="http://www.w3.org/1999/xlink"
   xmlns:sodipodi="http://sodipodi.sourceforge.net/DTD/sodipodi-0.dtd"
   xmlns:inkscape="http://www.inkscape.org/namespaces/inkscape"
   width="48px"
   height="48px"
   id="svg2985"
   version="1.1"
   inkscape:version="0.48.4 r9939"
   sodipodi:docname="Flower.svg"
   inkscape:export-filename="E:\Methamorphose\workspace\Metamorphose\src\main\resources\de\sambalmueslie\metamorphose\images\Flower.png"
   inkscape:export-xdpi="90"
   inkscape:export-ydpi="90">
  <sodipodi:namedview
     id="base"
     pagecolor="#ffffff"
     bordercolor="#666666"
     borderopacity="1.0"
     inkscape:pageopacity="0.0"
     inkscape:pageshadow="2"
     inkscape:zoom="14"
     inkscape:cx="13.301708"
     inkscape:cy="28.032172"
     inkscape:current-layer="layer1"
     showgrid="true"
     inkscape:grid-bbox="true"
     inkscape:document-units="px"
     inkscape:window-width="1920"
     inkscape:window-height="1153"
     inkscape:window-x="-4"
     inkscape:window-y="-4"
     inkscape:window-maximized="1" />
  <defs
     id="defs2987" />
  <metadata
     id="metadata2990">
    <rdf:RDF>
      <cc:Work
         rdf:about="">
        <dc:format>image/svg+xml</dc:format>
        <dc:type
           rdf:resource="http://purl.org/dc/dcmitype/StillImage" />
        <dc:title></dc:title>
      </cc:Work>
    </rdf:RDF>
  </metadata>
  <g
     inkscape:groupmode="layer"
     inkscape:label="Layer 1"
     id="layer1">
    <g
       id="g4638"
       transform="matrix(1.1487179,0,0,1.1487179,-3.5692296,-3.5692292)">
      <path
         d="m 28.999999,36.964287 c 0,-5.522849 -2.238575,-12.07143 -5.000001,-12.07143 -2.761422,0 -4.999997,6.548581 -4.999997,12.07143 0,5.522847 2.238575,7.928571 4.999997,7.928571 2.761426,0 5.000001,-2.405724 5.000001,-7.928571 z m 0,-25.928573 c 0,5.522849 -2.238575,12.07143 -5.000001,12.07143 -2.761422,0 -4.999997,-6.548581 -4.999997,-12.07143 0,-5.5228475 2.238575,-7.9285715 4.999997,-7.9285715 2.761426,0 5.000001,2.405724 5.000001,7.9285715 z"
         style="fill:#ff6600;stroke:none"
         id="path4607"
         inkscape:connector-curvature="0" />
      <use
         style="stroke:none"
         id="use4627"
         xlink:href="#path4607"
         inkscape:tiled-clone-of="#path4607"
         y="0"
         x="0"
         width="48"
         height="48" />
      <use
         style="stroke:none"
         id="use4629"
         transform="matrix(0.70710678,0.70710678,-0.70710678,0.70710678,24,-9.9411254)"
         xlink:href="#path4607"
         inkscape:tiled-clone-of="#path4607"
         y="0"
         x="0"
         width="48"
         height="48" />
      <use
         id="use4631"
         transform="matrix(0,1,-1,0,48,2.5e-7)"
         xlink:href="#path4607"
         inkscape:tiled-clone-of="#path4607"
         y="0"
         x="0"
         width="48"
         height="48" />
      <use
         style="stroke:none"
         id="use4633"
         transform="matrix(-0.70710678,0.70710678,-0.70710678,-0.70710678,57.941126,24)"
         xlink:href="#path4607"
         inkscape:tiled-clone-of="#path4607"
         y="0"
         x="0"
         width="48"
         height="48" />
      <path
         transform="matrix(1.8064517,0,0,1.3592233,-20.580648,-13.864078)"
         d="m 30.214286,27.857143 c 0,4.063238 -2.478424,7.357143 -5.535714,7.357143 -3.057291,0 -5.535714,-3.293905 -5.535714,-7.357143 0,-4.063237 2.478423,-7.357143 5.535714,-7.357143 3.05729,0 5.535714,3.293906 5.535714,7.357143 z"
         sodipodi:ry="7.3571429"
         sodipodi:rx="5.5357141"
         sodipodi:cy="27.857143"
         sodipodi:cx="24.678572"
         id="path4636"
         style="fill:#ffcc00;stroke:none"
         sodipodi:type="arc" />
    </g>
  </g>
</svg>
